<svg width="64" height="64" viewBox="0 0 64 64" fill="none" xmlns="http://www.w3.org/2000/svg">
  <circle cx="32" cy="32" r="24" stroke="#c9a86c" stroke-width="2" stroke-opacity="0.3"/>
  <path d="M32 56C45.2548 56 56 45.2548 56 32C56 18.7452 45.2548 8 32 8C18.7452 8 8 18.7452 8 32C8 45.2548 18.7452 56 32 56Z" stroke="#c9a86c" stroke-width="2.5" stroke-linecap="round"/>
  <path d="M32 18V24" stroke="#c9a86c" stroke-width="2" stroke-linecap="round"/>
  <path d="M32 40V46" stroke="#c9a86c" stroke-width="2" stroke-linecap="round"/>
  <path d="M18 32H24" stroke="#c9a86c" stroke-width="2" stroke-linecap="round"/>
  <path d="M40 32H46" stroke="#c9a86c" stroke-width="2" stroke-linecap="round"/>
  <circle cx="32" cy="32" r="6" stroke="#c9a86c" stroke-width="2"/>
  <path d="M44 20L40 24" stroke="#c9a86c" stroke-width="1.5" stroke-opacity="0.6"/>
  <path d="M20 44L24 40" stroke="#c9a86c" stroke-width="1.5" stroke-opacity="0.6"/>
  <path d="M20 20L24 24" stroke="#c9a86c" stroke-width="1.5" stroke-opacity="0.6"/>
  <path d="M44 44L40 40" stroke="#c9a86c" stroke-width="1.5" stroke-opacity="0.6"/>
</svg>