<svg width="64" height="64" viewBox="0 0 64 64" fill="none" xmlns="http://www.w3.org/2000/svg">
  <path d="M42 4H22C17.5817 4 14 7.58172 14 12V52C14 56.4183 17.5817 60 22 60H42C46.4183 60 50 56.4183 50 52V12C50 7.58172 46.4183 4 42 4Z" stroke="#c9a86c" stroke-width="2.5" stroke-linecap="round" stroke-linejoin="round"/>
  <path d="M32 24C32 24 26 28 26 34C26 37.3137 28.6863 40 32 40C35.3137 40 38 37.3137 38 34C38 28 32 24 32 24Z" stroke="#c9a86c" stroke-width="2" stroke-linejoin="round"/>
  <circle cx="32" cy="34" r="2" fill="#c9a86c"/>
  <path d="M22 14H42" stroke="#c9a86c" stroke-width="1.5" stroke-linecap="round" stroke-opacity="0.5"/>
  <path d="M22 50H42" stroke="#c9a86c" stroke-width="1.5" stroke-linecap="round" stroke-opacity="0.5"/>
</svg>