<svg width="64" height="64" viewBox="0 0 64 64" fill="none" xmlns="http://www.w3.org/2000/svg">
  <path d="M46 38C46 50.1503 36.1503 60 24 60C16.8208 60 10.4287 56.5599 6.54563 51.2402C12.3688 50.4533 16.9205 45.7196 17.6186 39.8834C18.6642 31.1417 25.8583 23.9475 34.6 22.902C40.4363 22.2038 45.1699 17.6521 45.9568 11.829C51.2764 15.712 54.7165 22.1042 54.7165 29.2835C54.7165 34.0978 51.3533 38 46 38Z" stroke="#c9a86c" stroke-width="2.5" stroke-linecap="round" stroke-linejoin="round"/>
  <path d="M46 12L48 8L50 12L54 14L50 16L48 20L46 16L42 14L46 12Z" fill="#c9a86c" fill-opacity="0.4"/>
  <circle cx="16" cy="18" r="2" fill="#c9a86c" fill-opacity="0.6"/>
  <circle cx="54" cy="48" r="1.5" fill="#c9a86c" fill-opacity="0.6"/>
</svg>